<?xml version="1.0" encoding="UTF-8"?>
<svg xmlns="http://www.w3.org/2000/svg" width="149px" height="36px" viewBox="0 0 149 36">
    <g id="Page-1" stroke="none" stroke-width="1" fill="none" fill-rule="evenodd">
        <g id="logo" fill="#000000">
            <g id="Combined-Shape">
                <path d="M68.2579007,12 C69.3624301,12 70.43327,12.196 71.472827,12.5896 C72.512384,12.9832 73.3401794,13.5304 73.9570153,14.2312 L71.4623994,16.7176 C71.1319229,16.2608 70.6907529,15.9136 70.1396914,15.6784 C69.5870257,15.4416 69.0038792,15.3248 68.3870432,15.3248 C67.1100566,15.3248 66.060874,15.764 65.2370893,16.6432 C64.4117003,17.5224 63.9994068,18.6352 63.9994068,19.9776 C63.9994068,21.3504 64.4012726,22.4704 65.2033999,23.336 C66.0063294,24.2 67.0458864,24.6328 68.3228731,24.6328 C69.7418363,24.6328 70.8166869,24.1176 71.548227,23.0888 L74.1070132,25.4904 C72.6591733,27.164 70.6883465,28 68.1937306,28 C65.8282571,28 63.8702643,27.2528 62.3229607,25.7592 C60.7740529,24.2648 60,22.3376 60,19.9776 C60,17.5904 60.7852826,15.664 62.3542437,14.1984 C63.924809,12.7328 65.8924273,12 68.2579007,12 Z M112.099992,12.02088 C112.990354,12.02088 113.882319,12.18168 114.777493,12.50328 C115.673469,12.82648 116.444314,13.28648 117.089224,13.88648 L114.744606,16.35368 C114.44461,15.96808 114.039536,15.65368 113.530185,15.40968 C113.021637,15.16808 112.523515,15.04488 112.035822,15.04488 C111.462301,15.04488 110.96418,15.16328 110.541459,15.39928 C110.118738,15.63528 109.906976,16.02488 109.906976,16.56888 C109.906976,16.81128 109.956708,17.02248 110.056974,17.20088 C110.15724,17.38008 110.325687,17.53688 110.562314,17.67208 C110.799744,17.80808 111.032361,17.92328 111.261769,18.01608 C111.491178,18.10808 111.821654,18.21928 112.250792,18.34808 C112.809875,18.53448 113.247836,18.68488 113.563072,18.79848 C113.877506,18.91368 114.282581,19.10328 114.777493,19.36728 C115.272406,19.63208 115.655823,19.90648 115.928546,20.19288 C116.200467,20.47928 116.444314,20.86168 116.659284,21.34008 C116.875056,21.82008 116.981739,22.34488 116.981739,22.91688 C116.981739,24.56168 116.418646,25.81608 115.294063,26.68008 C114.168679,27.54568 112.78902,27.97848 111.154284,27.97848 C110.049755,27.97848 108.98854,27.78568 107.972245,27.40008 C106.953543,27.01368 106.114518,26.47688 105.45517,25.79128 L107.863958,23.34568 C108.236145,23.81768 108.727849,24.20328 109.337466,24.50328 C109.94628,24.80408 110.552689,24.95448 111.154284,24.95448 C111.770318,24.95448 112.275658,24.82248 112.670305,24.55768 C113.064149,24.29288 113.261473,23.87448 113.261473,23.30328 C113.261473,23.07368 113.206928,22.87048 113.100245,22.69128 C112.993562,22.51288 112.874045,22.36328 112.745705,22.24088 C112.616562,22.12008 112.387154,21.98728 112.05748,21.84408 C111.726201,21.70168 111.447863,21.59128 111.218454,21.51128 C110.989046,21.43448 110.616859,21.30808 110.100289,21.13688 C109.541206,20.95128 109.060732,20.75768 108.658866,20.55768 C108.258605,20.35768 107.856739,20.09368 107.455675,19.76408 C107.053809,19.43528 106.74499,19.02088 106.530822,18.52008 C106.315852,18.02008 106.208367,17.44008 106.208367,16.78248 C106.208367,15.98168 106.380022,15.26328 106.724135,14.62728 C107.067445,13.99128 107.526262,13.49048 108.101388,13.12568 C108.674106,12.76168 109.30137,12.48648 109.982376,12.30008 C110.663382,12.11368 111.370056,12.02088 112.099992,12.02088 Z M84.4922284,12.4068 L90.8153981,27.5924 L86.7285594,27.5924 L85.5470259,24.6116 L79.6545986,24.6116 L78.535631,27.5924 L74.5362242,27.5924 L80.9219597,12.4068 L84.4922284,12.4068 Z M103.049116,12.40712 L103.049116,15.51752 L96.3617803,15.51752 L96.3617803,18.37032 L102.684148,18.37032 L102.684148,21.30872 L96.3617803,21.30872 L96.3617803,24.46152 L103.435741,24.46152 L103.435741,27.59272 L92.8123669,27.59272 L92.8123669,12.40712 L103.049116,12.40712 Z M128.228038,12.4068 L134.548801,27.5924 L130.464369,27.5924 L129.281231,24.6116 L123.388804,24.6116 L122.270638,27.5924 L118.27043,27.5924 L124.657769,12.4068 L128.228038,12.4068 Z M142.355177,12.40704 C143.128428,12.40704 143.84553,12.48624 144.505681,12.64384 C145.164227,12.80064 145.780261,13.05024 146.353782,13.39344 C146.928105,13.73744 147.37489,14.21584 147.698147,14.83104 C148.021405,15.44544 148.18183,16.16864 148.18183,16.99744 C148.18183,17.99824 147.903492,18.85584 147.343607,19.57104 C146.784524,20.28624 146.009669,20.79344 145.021448,21.09344 L149,27.59264 L144.698993,27.59264 L141.407865,21.56544 L140.161359,21.56544 L140.161359,27.59264 L136.547776,27.59264 L136.547776,12.40704 L142.355177,12.40704 Z M82.643325,16.4604 L80.7077917,21.6732 L84.5355433,21.6732 L82.643325,16.4604 Z M126.378332,16.4604 L124.441997,21.6732 L128.269749,21.6732 L126.378332,16.4604 Z M140.1389,15.36704 L140.1389,15.36704 L140.1389,18.90624 L141.881922,18.90624 L142.099571,18.9030359 C143.732628,18.8539067 144.547391,18.2398067 144.547391,17.06144 C144.547391,15.93184 143.731628,15.36704 142.09609,15.36704 L142.09609,15.36704 Z"></path> <path d="M23.6538462,-2.30926389e-14 C23.6538462,-2.30926389e-14 23.336714,1.3911113 22.4216981,2.8511959 C28.44624,7.59602251 30,17.0244262 30,21.375 C30,22.615875 28.965,23.625 27.6923077,23.625 L26.5384615,23.625 L26.5384615,29.25 C26.5384615,31.11075 24.9853846,32.625 23.0769231,32.625 L20.7692308,32.625 L20.7692308,36 L18.4615385,36 L18.4615385,30.375 L23.0769231,30.375 C23.7138462,30.375 24.2307692,29.871 24.2307692,29.25 L24.2307692,21.375 L27.6923077,21.375 C27.6923077,21.2258023 27.4633861,9.67020039 20.9675837,4.59568938 C19.289437,6.08853713 17.5508396,6.18135431 17.3309928,6.18711953 L17.3076922,6.18750021 C17.3076922,6.18750021 17.3034052,4.71368018 18.496619,3.14244224 C17.153288,2.57549159 15.6122696,2.25 13.8461538,2.25 C6.5462557,2.25 2.9394434,6.98873432 2.38401084,12.0882872 C2.56564827,11.8546351 2.77382254,11.619023 3.01269231,11.386125 C4.87730769,9.568125 7.5,9 7.5,9 C7.5,9 6.91730769,11.556 5.05269231,13.375125 C4.13195581,14.2728431 3.16986149,14.7259016 2.43175965,14.9545481 C2.83649622,17.3079676 4.17302212,19.2635775 5.57538462,21.313125 C7.37307692,23.941125 9.23076923,26.659125 9.23076923,30.375 L9.23076923,36 L6.92307692,36 L6.92307692,30.375 C6.92307692,27.340875 5.33653846,25.018875 3.65538462,22.561875 L3.26994534,21.9970237 C1.60178571,19.5404981 0,16.9504554 0,13.5 C0,5.551875 5.69423077,0 13.8461538,0 C16.3457407,0 18.4770977,0.548942671 20.2902067,1.47964344 C21.934355,0.372638401 23.6538462,-2.30926389e-14 23.6538462,-2.30926389e-14 Z M21.8653846,13.5 C23.1062596,13.5 24.1153846,14.509125 24.1153846,15.75 C24.1153846,16.990875 23.1062596,18 21.8653846,18 C20.6245096,18 19.6153846,16.990875 19.6153846,15.75 C19.6153846,14.509125 20.6245096,13.5 21.8653846,13.5 Z M14.4230769,11.8125 L14.3998961,11.8369923 C14.1849949,12.061235 12.4963077,13.763775 10.1884615,14.385375 C7.71576923,15.051375 5.76923077,14.0625 5.76923077,14.0625 C5.76923077,14.0625 6.99115385,12.3345 9.46384615,11.6685 C11.9365385,11.0025 14.4230769,11.8125 14.4230769,11.8125 Z M15.5769231,4.5 C15.5769231,4.5 14.9942308,7.056 13.1296154,8.875125 C11.3815385,10.5795 9.48438542,10.6810798 9.25406972,10.6871195 L9.23076912,10.6875002 C9.23076912,10.6875002 9.225,8.704125 11.0896154,6.886125 C12.9542308,5.068125 15.5769231,4.5 15.5769231,4.5 Z M17.5407692,7.1685 C20.0134615,6.5025 22.5,7.3125 22.5,7.3125 C22.5,7.3125 20.7380769,9.219375 18.2653846,9.885375 C15.7926923,10.551375 13.8461538,9.5625 13.8461538,9.5625 C13.8461538,9.5625 15.0680769,7.8345 17.5407692,7.1685 Z"></path>
            </g>
        </g>
    </g>
</svg>
